<svg width="425" height="170" viewBox="0 0 425 170" fill="none" xmlns="http://www.w3.org/2000/svg">
<path fill-rule="evenodd" clip-rule="evenodd" d="M139.683 53.9009C118.927 41.8106 105.093 39.0486 90.2632 39.0486C82.0299 39.0486 72.8067 41.1173 71.4846 49.4101C70.497 56.6607 77.0872 58.3895 90.9254 61.5071C116.292 67.0289 141.988 74.2885 145.279 101.582L159.124 30.0625L139.683 53.9009ZM330.78 55.9741L368.66 4.83746H425L345.273 103.311L333.412 164.811H285.315L298.818 96.0559L274.112 51.4811L241.827 88.4542L285.315 164.811H227.331L193.386 101.238L181.851 164.811H133.093L140.011 128.189C126.83 159.63 102.128 170 68.5262 170C40.1923 170 14.1614 161.012 0 144.77L26.6819 111.946C38.2125 123.696 56.0035 129.914 74.782 129.914C87.958 129.914 95.8658 124.736 96.1935 117.819C96.5235 106.075 77.0872 104.346 59.2963 99.1691C39.2002 93.2917 17.7864 79.1282 23.3868 49.4101C27.6718 26.6027 47.1058 0 96.5235 0C124.2 0 144.624 6.56177 161.427 19.0032L164.055 4.83746H212.827L198.652 74.2885L255.991 4.83746H304.425L330.78 55.9741Z" fill="#F35C58"/>
</svg>
